<svg width="74" height="70" fill="none" xmlns="http://www.w3.org/2000/svg"><path d="M70 47H4c-2 0-4 2-4 4v4c0 2 2 4 4 4h1v1c0 5 4 10 10 10h44c6 0 10-4 10-10v-1h1c2 0 4-2 4-4v-4c0-2-2-4-4-4Zm-4 13c0 4-3 7-7 7H15c-4 0-7-3-7-7v-1h58v1Zm5-5-1 1H4l-1-1v-4l1-1h66l1 1v4ZM16 38l5 5 5-5 6 5 5-5 5 5 6-5 5 5 5-5 6 5 6-5-2-3-4 4-6-4-5 4-5-4-6 4-5-4-5 4-6-4-5 4-5-4-6 4-4-4-2 3 6 5 6-5ZM8 32h61v-4C68 13 54 0 37 0S6 13 5 29v3h3ZM37 3c16 0 28 11 29 26H8C9 14 21 3 37 3Z" fill="#81B3D2"/><path d="m37 17 2-2-2-2-2 2 2 2ZM29 12l2-2-2-2-2 2 2 2ZM45 12l2-2-2-2-2 2 2 2Z" fill="#81B3D2"/></svg>