<svg width="64" height="76" fill="none" xmlns="http://www.w3.org/2000/svg"><g clip-path="url(#a)"><path d="M61 23H36c14-7 15-12 15-14-1-4-6-7-10-6-6 2-7 11-9 17-2-6-4-14-8-18l-6-2c-4 0-10 5-7 11 2 6 9 9 14 12H3c-2 0-3 1-3 3v11c0 1 1 3 3 3v36h58V40c2 0 3-2 3-3V25c0-1-1-2-3-2ZM42 6c3 0 5 1 6 3 0 3-4 5-5 7l-8 4c1-4 3-13 7-14ZM20 16c-3-2-7-4-7-8s6-7 9-4c4 4 6 11 7 17l-9-5Zm6 57H6V40h20v33Zm0-36H3V26h23v11Zm10 0v36h-7V26h7v11Zm22 36H39V40h19v33Zm3-36H39V26h22v11Z" fill="#81B3D2"/></g><defs><clipPath id="a"><path fill="#fff" d="M0 0h64v76H0z"/></clipPath></defs></svg>