<svg width="138" height="70" fill="none" xmlns="http://www.w3.org/2000/svg"><g clip-path="url(#a)"><path d="M138 0H0l60 66c5 6 13 6 19 0l59-66Z" fill="#81B3D3"/><path d="m37 1 32 37 32-37H37Z" fill="#23A9E1"/><path d="M61 15h17c-1-1-4-5-6-3 0 0-4-6-8-3-2 2-4-1-7 1-3 3 2 4 4 5Zm27-4H78c4-4 6-4 10 0Z" fill="#fff"/><path d="M98 4V1h2l-2 3Zm-50 9 7-5c3-2 8-5 14-5s11 3 14 5l7 5-3 3c-4 1-8 4-12 3-2 0-2-1-3-3l-2-1h-4c-1 0-1 2-4 2l-2-3c-4-5-8-4-11 0l20 23-21-24ZM40 1v2l-2-2h2Zm54 0h3v3l-3 4V1Zm-4 12V1h3v8l-3 4ZM89 2v10l-3-3 3-7Zm-4 0v7l-1-1-2-2 3-4Zm-4 0v4l-3-1 3-3Zm0-1h4l-4 5V1Zm5 0h3l-3 7V1Zm-9 0h4l-4 3V1Zm-1 1v2l-3-1 3-1Zm-4 0v1h-2l2-1Zm-7 0 3 1h-3V2Zm-4 0 3 1-3 1V2Zm4 1-3-2h3v2Zm3-1-2-1h2v1Zm1-1h3l-3 2V1Zm4 0h3l-3 2V1ZM60 4l-3-3h4v3h-1Zm-3-2 3 2-3 2V2Zm-4 0 3 4-3 3V2Zm-5 0 4 7-4 3V2Zm4 6-4-7h4v7Zm4-2-3-5h3v5ZM44 8l-3-4V1h3v7Zm0-7h4v11l-4-4V1Zm25-1H36v15l33 40v-1l33-39V0H69Z" fill="#491213"/><path d="m66 46 3-4 2 4-2 4-3-4Z" fill="#23A9E1"/><path d="M74 31c-3-2-2-4 0-5s5-4 7-3l-7 8Zm-2 2h-6c1 1 4 1 1 2 1 2 3 1 4 0h-1l2-2Zm1-1h-3c-1-3-5-2-7-2 1 2 10 3 10 2Zm-7-3c-1 0-6 0-3-1 1-1 7 0 3 1Zm2-3c0-1 1-2 2-1s-1 2-2 1Zm-3 0c-2 1-5 0-1-1 2-1 5 0 1 1 0 0 1 0 0 0Zm-2-6c-1 2-2 2-2 0 1-2 2-1 4-2 1-1 2-4 4-2l2 1-1 7c-3 0-2-4 0-7-2 1-4 5-2 5-1 1-3 3-5 2v-4Zm-4 3c-6 0-2-9 0-8s2 8 0 8Zm-6-8c-3 0-2-3 0-3 2-1 5 1 6 2l-6 1c0-2 0-2 0 0Z" fill="#DC6243"/><path d="M72 26c-3-3 4-3 5-4l9-5-5 5-4 1-5 3Z" fill="#F49774"/><path d="M73 22c-2 1-3-2-1-2h6c-1 2-3 2-5 2Z" fill="#F4B1A4"/><path d="m51 21 1 1-1 2 2-2-4-4-2 1h3l-4 4h-1 1l1 2v-1l4-3Zm-3-5s0 1 0 0l-1-1h-1l-4 3h-1l2 2v1-1h1l4-4Zm-6 0-3-1 2-4 2 1v2l2-2-1-1-3-2c-2 0-3 2-4 3l1 3 2 2 2-1Zm26 23-3-3h-1l-4 4h-1l2 2c1 0 0 0 0 0l3-2c0-1 0 0 0 0v2l2-2h-1l-1-1 1-1 1 2v1l2-2c0 1 0 1 0 0-1 0 0 1 0 0Zm-10-8h-2v5c1 2 3 2 5 1 1-1 2-3 0-5l-3-1Zm2 1 1 2-3 2c-1 1-2 0-1-2l2-2h1Zm-3-5h1l-2-1-2 1 1-2h1l-2-2-1-1v2l-1 2-2 2h-1l2 2c1 0 0 0 0 0l3-2 3-1Zm24 7v1l-1 2-2-2 1-1h1l-2-1v1l-1 1-1-2 2-1h1l-2-1-3 4c0 1 0 0 0 0l5 4v1l3-4-1-3v1Zm-4 4-4 1c-1 1-1 0-1-1h3v-1l-2-1-1 2-1 2 1 2 2-1h2l-1 2h-2l2 1 1-1 1-1v-4Zm18-28-1 1-1 1v1l3 5-4-3-1-1v1l-1 1h1l1 1h-2v-1l-2 2-1 1h1l4 4 2-1h-1l-4-3h5l1 1 1-1v-1l1-1-1-1v-1h3v1l2-3-6-2v-1Zm-1 3 3 1h-1l-1 1-1-2Zm-6 8-3 1v5c2 1 4 1 5-1v-5h-2Zm-2 1 2 1 2 3h-1l-2-1-2-2 1-1Zm-3 5c-1-1-2 0-3 1l-2 2 1 1 4 3v1l3-4c1-1 0-3-1-4 1 1 1 1 0 0h-2Zm-1 1c2 1 4 2 3 4h-1l-4-3 2-1Z" fill="#fff"/></g><defs><clipPath id="a"><path fill="#fff" d="M0 0h138v70H0z"/></clipPath></defs></svg>