<svg width="458" height="352" fill="none" xmlns="http://www.w3.org/2000/svg"><path d="m152 56-2 5h-3l-1 1h3l-6 11c-2 2-1 4 2 4 2 0 3-1 5-3 0 4 6 4 9 0h1l6-2-1-1-5 2 3-5c2-3 0-6-3-6-2 0-4 1-6 4l-1 3-2 2-5 4-1-1 7-11h2l1-2h-2l2-5h-3Zm8 8v3l-2 4-2 1v2c-1 2-4 2-3-2l3-3 1-3 3-2Zm22-8-3 5h-3l-1 1h3l-6 11c-1 2 0 4 2 4l4-2-1 2h3l5-8c4-6 7-5 5-3l-4 7c-1 2 0 4 2 4l6-3c0 2 2 3 4 3 4 0 7-3 10-6l-2-1v1l-7 4c-2 0-3-1-1-3v-1c2 1 5 0 8-3v-1c2-3 0-5-2-5-3 0-5 1-6 4l-3 5c-2 2-4 4-6 4v-1l4-8c2-2 0-4-1-4-2 0-3 1-4 3l4-9h-3l-8 15-6 4v-1l6-11h3l1-2h-3l3-5h-3Zm21 8c1 0 2 1 1 3l-1 1c-1 2-3 2-4 2l2-4 2-2Zm44-5v5l-5 7-5 2 3-5c2-3 0-6-3-6-2 0-4 1-6 4l-1 3-1 2h-1c-2 3-4 5-7 6l7-12h-2c0-1-1-3-3-3l-5 4-4 7c-2 2-1 4 2 4l3-1-1 1c-4 2-7 3-7 6 0 2 5 3 7-1l2-4c3 0 5-2 7-4 0 4 6 5 9 0h1l6-2 5-7v1l1 1-4 6c-1 2 0 4 2 4l5-2c0 1 1 2 3 2l3-1-1 1c-4 2-7 3-7 6 0 2 5 3 7-1l2-4c3 0 5-2 8-4 0 2 1 3 4 3 2 0 5-1 7-3 0 4 5 5 8 0h4c0 2 0 3 2 3s4-1 5-3c0 2 1 3 3 3s5-3 8-5l4-6c-1 3-1 9-3 9l-2-1-2 1s1 2 4 2c4 0 7-3 9-5l-1-1-4 3 3-11-3-1-6 9h-1l-5 4-1-1 7-12h-3l-6 10-4 3v-2l6-11h-3l-5 9-4 2 2-5c2-3 1-6-2-6s-4 1-6 4l-2 3-1 2-7 4c-2 0-3-1-2-3l1-1c1 1 5 1 7-3l1-1c1-3 0-5-3-5-2 0-4 2-5 4l-3 5-7 6 6-12h-1c0-1-2-3-4-3l-5 4-3 5-5 4-1-1 3-5v-4l-2-2v-2l-2-2Zm-10 5c1 0 2 1 1 3l-3 4-2 1 1 1v1c-2 2-5 2-3-2l2-3 1-3 3-2Zm50 0c1 0 2 1 1 3l-2 4h-1l-1 1v2c-1 2-5 2-3-2l2-3 2-3 2-2Zm-11 0v4c-2 2-4 2-5 2l2-4 3-2Zm-53 1c1 0 2 0 1 2l-2 4c-2 3-4 4-5 4v-1l4-8 2-1Zm39 0c1 0 2 0 1 2l-2 4c-2 3-4 4-5 4l-1-1 5-8 2-1Zm-45 14-2 3h-1l3-3Zm39 0-2 3h-1c0-1 0-2 3-3ZM101 68h29v2h-29v-2Zm227 0h29v2h-29v-2Z" fill="#766458"/><path d="M323 37v8h-21V0h21v8h-13v11h10v8h-10v10h13ZM290 0h8v45h-8V23l-3 12h-7l-3-12v22h-8V0h8l6 22 7-22Zm-32 8h-5v29h5V8Zm3-8c3 0 5 3 5 5v35c0 3-2 5-5 5h-11c-3 0-5-2-5-5V5c0-2 2-5 5-5h11Zm-28 29 8-2v13c0 3-2 5-5 5h-11c-3 0-5-2-5-5V5c0-2 2-5 5-5h11c3 0 5 3 5 5v9l-8 2V8h-5v29h5v-8Zm-17 8v8h-18V0h8v37h10Zm-21 0v8h-21V0h21v8h-13v11h10v8h-10v10h13ZM163 0h7l-1 45h-14l-2-18-2 18h-15l-1-45h8v37h1l5-37h7l5 37h1l1-37Z" fill="#81B3D3"/><path d="m381 214 25-74h25l26 74h-20l-4-13h-28l-4 13h-20Zm35-52-7 24h20l-7-24-2-4v-4l-1-1v-1 2l-1 1a42 42 0 0 1-2 7Zm-117 52v-74h19l28 38 2 3 2 4 2 3 1 3v-2l-1-3v-46h19v74h-19l-28-38-2-3-2-5-2-2-1-3a86 86 0 0 1 1 14v37h-19Zm-88-55c3-7 8-12 15-15a41 41 0 0 1 22-5h3a42 42 0 0 1 17 6c5 4 10 8 13 14s4 12 4 19v5a39 39 0 0 1-3 9c-3 8-8 13-15 18-7 4-14 6-21 6h-4a42 42 0 0 1-15-5 39 39 0 0 1-21-34v-3l1-3 1-6 3-6Zm53 27v-3l1-2v-6l-3-10-7-7-2-1-3-1h-4c-4 0-8 1-11 3-3 3-6 6-7 10v1l-1 2v3l-1 1v3h1c0 5 1 8 3 12 3 4 6 6 10 7l1 1h4c5 0 8-1 11-3 4-3 6-6 8-10Zm-83 21c-3 3-7 4-11 5l-13 2h-28v-74h29l12 2a31 31 0 0 1 22 17 41 41 0 0 1 4 17v2c0 6-2 11-4 16s-6 10-11 13Zm-32-10h2v1h3l3-1 6-1 5-2 5-7c2-3 2-7 2-10v-2l-2-8-5-7-5-2-6-1h-8v40Zm-80 17v-74h46v16H89v13h24v16H89v12h25v17H69Zm-59-24 7 7 9 3h3l4-1 2-3h1v-4c0-2-1-4-3-5a21 21 0 0 0-8-4l-2-1-11-4c-3-2-6-5-7-9l-1-2v-8l1-5 3-4c2-4 5-7 9-9l12-3h3l4 1a45 45 0 0 1 16 6l-7 14-6-4-8-2h-1l-5 3-2 4v1l1 2 1 1 4 2 5 2a247 247 0 0 1 8 2c4 1 8 4 10 8 2 3 3 7 3 11v3c0 4-2 8-4 12s-5 6-8 8l-4 2-5 1h-3l-4 1h-1a42 42 0 0 1-26-11l10-15Zm341 147 1-1 1-1h2l1 1 1 1v3l-2 2a5 5 0 0 1-1 2h-1l-2-2h1l1-1 1-1v-1h-2l-1-2Zm8 0v-1h1l1-1h2l1 1 1 1v1l-1 2-1 2-1 1-1 1h-1l-1-2h1l1-1v-1l1-1h-2l-1-2ZM95 279h-1v1a3 3 0 0 1-3 1l-1-1-1-1v-4l2-2 1-1h1l2 2h-1l-1 1h-1v1l2 1 1 2Zm-8 0-1 1-1 1h-2l-1-1-1-1v-4l2-2h1v-1h2l1 2h-1l-1 1h-1v1l2 1 1 2Zm245 56h4l12-20h-4l-12 20Zm0 2-2 2 2 2 2-2-2-2Zm-26-6 1-1c4-7 7-5 6-3l-2 4c-1 1-5 3-5 0Zm25 3-2-1-5 4c2-3 1-9 4-14l-3-1-8 11h-1c-2 4-5 6-7 6l-1-2v-2c2 0 5-1 7-5l1-1c3-6-2-8-6-5l5-9h-4l-10 19-1-1c-3 4-7 6-9 6-3 0-4-1-2-4l4-7c2-4 6-3 3 1v1h3v-1c2-4 1-6-3-6-3 0-5 1-7 4l-3 6h-1v1c-3 3-5 5-7 5v-2l8-14h-4l-7 12-5 3v-2l7-13h-3l-8 13-3 2c1-4 1-10 3-14l-2-2-14 18 1 1 11-13c-1 3-1 11-4 11-2 0-2-2-2-2l-2 1s0 3 4 3h1l6-2c0 1 1 2 3 2l6-3c0 2 1 3 3 3l8-4c0 2 2 4 5 4s6-1 8-4l-2 4h4l4-7v3c0 3 1 4 4 4s7-3 10-7l5-6c-1 3 0 11-4 11l-2-2-2 1s0 3 4 3h1c4 0 8-3 11-7Zm-115-1c-1 0-2 1-2 3v1c-2 3-6 2-4-2l3-5 2-3c3-4 6-2 4 2l-3 4Zm-25 14c-1 2-2 2-2 1s0-2 3-4l-1 3Zm-29-13c-2 3-5 5-6 5s-2-1-1-2l6-9c2-4 6-3 4 0l-3 6Zm-12-15 3-3c2 0 2 1 2 2 0 4-4 11-10 10h-1l6-9Zm93 14h-1c-2 4-5 6-7 6v-2l5-10c2-3 0-5-2-5l-5 3 2-2h-4l-6 10h-1l-6 3 4-6c2-4 0-8-4-8-3 0-5 1-7 5l-2 3-1 3h-1c-3 4-6 6-9 7l11-17h-4l-7 11c-3 3-5 5-6 4l1-2 7-13h-4l-6 10-7 6c-1 0-2-1-1-2l6-10c1-3 0-5-2-5l-6 3 2-2h-4l-6 10h-1c-2 3-5 6-7 6v-2l6-11h-2c0-2-2-4-4-4s-5 2-7 5l-3 6h-2c-2 3-4 6-8 6-3 0-4-3-2-7l1-1h2c4 0 9-2 12-8l1-5c0-3-2-5-5-5-2 0-4 1-6 4l-6 10c-2-1-3-3-3-5l2-5-1-2c-3 2-4 4-4 7s2 6 5 7l-1 2c-3 5-1 10 4 10 4 0 6-2 9-4-1 2 0 4 3 4l5-2c0 1 1 2 3 2l6-3-2 3h4l6-10c6-8 8-7 7-4l-5 9c-2 2-1 5 2 5 2 0 5-1 7-3-1 2 0 3 2 3l6-3-2 4c-5 1-9 3-9 6 0 4 6 4 9 0l3-5 9-6c0 5 7 6 11 1h1l5-2-3 5h4l6-11c5-7 8-6 6-3l-5 8c-1 3 0 6 3 6s7-3 10-7l-1-1Zm118-36c-2 4-4 6-6 6v-2l5-9c2-4 6-3 4 0l-3 5Zm-36 1c-2 3-4 5-6 5v-2l5-9c2-4 6-3 4 0l-3 6Zm-40 13c-1 2-2 2-2 1l4-4-2 3Zm8-28 4-3c6 0 1 15-9 12l5-9Zm78 14c-3 4-6 6-7 6s-2-1-1-2l13-22h-4l-5 9-4-2c-2 0-5 2-6 5l-4 6h-1c-2 4-5 6-6 6s-2 0-1-2l6-10c1-2 0-4-2-4s-4 0-5 2l1-2h-4l-6 10h-1c-2 4-5 6-7 6v-2l6-11h-2c0-1-1-4-4-4-2 0-5 2-6 5l-4 6c-3 4-6 6-8 6v-2l4-7c1-2 0-3-1-5l-2-2v-2l-2-3c-2 2-2 5-1 6l1 1-7 8-8 8 5-9h-4l-1 1c-2 4-4 6-7 6-2 0-3-2-1-6l1-2h3c13 0 19-18 8-18l-7 4-5 11c-3-2-4-4-4-6s1-3 3-5l-2-2-4 7c0 3 2 6 5 8l-1 2c-3 4-2 9 3 9l4-1-1 2c-5 1-8 3-8 6 0 4 6 5 8 0l3-5c4-1 8-4 12-9l6-8 1 1v2l-4 7c-2 3-1 5 2 5 2 0 5-1 7-3 0 2 1 3 3 3l5-2 4 2 5-3-1 3h4l5-10c6-7 9-7 7-4l-5 9c-1 3 0 5 3 5l6-3c0 2 1 3 3 3l5-2 4 2c3 0 6-3 9-7l-1-1Zm-112-5c2-4 6-3 3 1-2 4-4 3-6 3l3-4Zm-3 13c4 0 8-3 11-7l-1-1c-3 4-7 6-9 6-3 0-4-1-2-4v-1c2 1 7 0 10-5 2-4 0-7-3-7s-5 2-7 5l-3 6h-1c-3 4-5 6-7 6v-2l5-10c2-3 0-5-2-5l-5 3 6-10h-4l-11 18c-3 4-6 6-7 6s-2-1-1-2l8-14h3l2-2h-4l4-6h-4l-3 6h-4l-1 2h4l-8 13c-2 3-1 5 3 5l5-3-1 3h4l5-10c6-7 9-6 7-4l-5 9c-1 3 0 5 3 5 2 0 5-1 7-4 0 3 2 4 6 4Zm-128-13c2-4 6-3 4 1h-1c-1 4-4 3-5 3l2-4Zm23 9 5-9c2-4 7-3 5 1l-3 5-6 5c-1 0-2-1-1-2Zm54-9c2-4 6-3 4 1h-1c-1 4-4 3-5 3l2-4Zm-58 9c0 2 1 4 3 4l6-2c0 1 1 2 3 2l6-3c0 2 1 3 3 3l6-3c0 2 1 3 3 3 3 0 7-3 10-7l5-7c-1 4-1 11-4 11l-2-1-2 1s0 3 4 3h1c3 0 5-2 8-4 0 2 2 4 5 4 4 0 8-3 12-7l-2-1c-3 3-6 6-9 6-2 0-4-2-2-5 3 1 7 0 10-5l1-1c2-3 0-6-3-6s-6 2-7 5l-4 6h-1l-4 4 3-14-3-1-8 11c-3 4-5 6-7 6v-2l8-14h-4l-7 12c-3 2-5 4-6 3l1-2 7-13h-3l-6 10h-1c-3 3-5 6-7 6v-2l6-11h-2c0-1-2-4-4-4s-5 2-7 5l-4 6h-1c-2 3-6 6-8 6s-4-2-2-5l4-6c2-4 6-3 4 0l-1 1h3l1-1c2-3 0-6-3-6s-5 2-7 5l-4 6c-3 3-6 6-9 6-2 0-4-2-2-5 3 1 7 0 10-5l1-1c2-3 0-6-3-6s-6 2-7 5l-4 7c-3 4-1 7 4 7 3 0 6-2 8-4 0 2 2 4 6 4 3 0 6-1 8-4Zm-37-14 4-5c2-5 6-2 4 2-2 2-4 3-8 3Zm-4 18-5-2 2-2 6-11h1c9 1 6 15-4 15Zm10-16c7-3 8-12 0-12-2 0-4 1-6 4l-10 18-1 2c-3-4-2-9 1-11l-1-2c-8 5-6 19 7 19 12 0 17-13 10-18Z" fill="#fff"/></svg>